<?xml version="1.0" standalone="no"?>
<!DOCTYPE svg PUBLIC "-//W3C//DTD SVG 20010904//EN"
 "http://www.w3.org/TR/2001/REC-SVG-20010904/DTD/svg10.dtd">
<svg version="1.0" xmlns="http://www.w3.org/2000/svg"
 width="260.000000pt" height="260.000000pt" viewBox="0 0 260.000000 260.000000"
 preserveAspectRatio="xMidYMid meet">
<metadata>
Created by potrace 1.11, written by Peter Selinger 2001-2013
</metadata>
<g transform="translate(0.000000,260.000000) scale(0.100000,-0.100000)"
fill="#000000" stroke="none">
<path d="M1058 2517 c-7 -8 -19 -12 -27 -9 -8 3 -11 1 -8 -4 3 -5 -20 -8 -51
-8 -32 1 -61 -1 -67 -4 -5 -4 -18 -7 -27 -8 -36 -3 -39 -4 -32 -16 5 -8 2 -9
-9 -5 -23 9 -49 -2 -40 -17 4 -6 -2 -4 -12 4 -15 12 -17 12 -10 1 6 -11 4 -13
-10 -7 -16 6 -16 4 -4 -11 8 -9 9 -14 2 -10 -6 4 -14 3 -18 -3 -3 -5 -17 -10
-31 -10 -14 0 -23 -4 -20 -8 2 -4 -5 -9 -16 -9 -12 -1 -26 -7 -32 -14 -8 -9
-7 -10 3 -4 10 6 12 4 7 -4 -6 -9 -11 -9 -21 -1 -9 7 -16 6 -24 -3 -6 -8 -8
-17 -4 -20 6 -6 -20 -11 -39 -8 -5 0 -8 -3 -8 -9 0 -5 -5 -10 -11 -10 -7 0
-18 -8 -25 -17 -12 -17 -13 -17 -10 2 2 11 1 14 -1 8 -3 -7 -9 -13 -14 -13 -6
0 -7 -4 -4 -10 3 -5 -2 -10 -12 -10 -15 0 -16 -2 -3 -10 13 -8 13 -11 1 -22
-10 -10 -12 -10 -7 0 4 6 2 12 -3 12 -15 0 -14 -27 2 -34 6 -3 2 -3 -10 -1
-12 3 -25 0 -29 -6 -4 -8 -3 -9 4 -5 7 4 12 3 12 -2 0 -5 -10 -14 -22 -21 -13
-6 -16 -10 -7 -7 12 3 15 -1 12 -15 -3 -10 -10 -19 -15 -19 -5 0 -6 5 -2 12 5
7 3 8 -5 4 -7 -5 -10 -14 -7 -21 2 -7 -4 -15 -14 -18 -13 -3 -18 -13 -16 -35
2 -26 0 -29 -13 -19 -12 10 -14 8 -9 -11 4 -14 2 -20 -5 -15 -6 4 -8 0 -4 -10
4 -10 0 -17 -11 -20 -16 -4 -15 -5 1 -6 20 -1 21 -10 2 -34 -7 -11 -11 -26 -8
-34 3 -8 0 -19 -8 -24 -8 -5 -9 -9 -3 -9 6 0 11 -7 11 -15 0 -10 -4 -12 -11
-6 -8 7 -10 -2 -8 -31 3 -28 1 -39 -7 -34 -6 4 -11 2 -11 -3 0 -6 5 -11 11
-11 8 0 7 -6 -2 -17 -9 -11 -10 -14 -2 -9 9 5 11 2 7 -8 -3 -9 -11 -16 -18
-16 -6 0 -5 -4 4 -9 8 -6 18 -7 24 -4 5 3 6 1 2 -5 -4 -7 -2 -13 3 -13 6 -1
16 -2 21 -3 6 0 11 -5 12 -11 3 -14 22 -34 29 -29 7 4 2 -54 -6 -67 -4 -5 -2
-9 3 -9 6 0 12 -7 15 -14 4 -9 1 -13 -6 -10 -8 3 -13 -4 -13 -15 0 -11 4 -17
9 -14 5 3 7 -3 5 -13 -2 -12 2 -18 10 -16 8 1 11 -2 7 -8 -3 -5 -14 -10 -23
-10 -15 -1 -15 -2 2 -11 15 -9 16 -13 5 -20 -12 -7 -11 -9 1 -10 10 0 8 -3 -5
-9 -18 -8 -18 -9 5 -9 18 -1 21 -4 11 -10 -17 -11 -17 -91 1 -102 10 -7 9 -9
-4 -9 -10 0 -18 -5 -18 -11 0 -5 4 -7 10 -4 6 4 7 -1 3 -10 -3 -10 0 -21 8
-26 10 -6 8 -9 -11 -10 -14 0 -19 -3 -12 -6 20 -8 34 -41 20 -49 -6 -4 -8 -3
-4 4 3 6 2 13 -3 16 -10 7 -9 -13 2 -31 4 -6 2 -15 -4 -19 -8 -5 -9 -3 -4 6 5
9 4 11 -4 6 -9 -6 -9 -11 0 -22 9 -11 8 -14 -2 -14 -9 0 -10 -3 -3 -8 12 -7
15 -42 4 -42 -3 0 -6 -9 -6 -20 0 -13 5 -19 14 -15 8 3 10 0 5 -8 -12 -19 -12
-36 -1 -44 7 -4 8 -1 3 8 -5 8 -4 11 0 6 5 -4 10 -18 12 -30 2 -17 1 -19 -7
-7 -5 8 -10 10 -10 4 0 -14 25 -36 32 -29 2 3 5 -2 5 -10 0 -9 -6 -14 -14 -11
-9 4 -8 -2 4 -18 10 -13 22 -21 27 -18 5 3 6 0 2 -7 -4 -6 -12 -9 -17 -6 -5 4
-9 1 -9 -4 0 -6 6 -11 13 -11 9 0 8 -3 -2 -9 -11 -7 -11 -9 0 -14 11 -4 11 -6
0 -6 -11 -1 -10 -5 5 -17 10 -8 13 -13 6 -9 -14 7 -17 -11 -3 -19 5 -3 11 -15
14 -26 3 -11 1 -18 -4 -14 -5 3 -6 -2 -3 -10 3 -9 14 -16 23 -16 13 0 14 -2 2
-9 -8 -5 -16 -17 -17 -25 -1 -9 2 -14 7 -10 5 3 10 -1 10 -8 1 -7 2 -20 3 -28
0 -8 9 -14 19 -14 14 2 15 -1 6 -12 -8 -10 -8 -14 0 -14 6 0 11 -5 11 -11 0
-5 -5 -7 -12 -3 -7 4 -8 3 -4 -4 4 -6 13 -9 21 -5 8 3 15 1 15 -5 0 -6 -6 -13
-12 -15 -10 -4 -10 -6 0 -6 7 -1 11 -5 7 -11 -3 -5 4 -19 15 -30 18 -18 24
-19 38 -8 15 12 16 11 4 -4 -8 -9 -11 -23 -7 -30 4 -7 -1 -4 -9 6 -9 11 -16
15 -16 8 0 -6 10 -18 22 -26 12 -9 19 -16 14 -16 -5 0 -3 -7 4 -15 9 -11 9
-19 2 -28 -9 -10 -7 -19 5 -37 10 -14 11 -20 4 -15 -10 6 -12 -2 -9 -33 2 -22
0 -38 -4 -36 -7 5 -12 -14 -11 -43 1 -7 -3 -10 -8 -7 -5 3 -14 -6 -21 -20 -6
-14 -14 -26 -17 -26 -3 -1 -23 -3 -44 -6 -23 -4 -44 -1 -52 6 -15 12 -20 4
-16 -22 0 -5 -6 -8 -15 -8 -10 0 -14 -6 -11 -14 4 -10 1 -13 -9 -9 -8 3 -14 1
-12 -5 2 -6 -6 -18 -17 -27 -11 -9 -13 -13 -5 -9 9 4 12 3 7 -2 -5 -5 -13 -10
-18 -10 -5 -1 -14 -2 -20 -3 -5 0 -8 -5 -5 -9 3 -5 -1 -9 -9 -9 -8 0 -12 5 -8
10 3 5 -4 4 -15 -2 -27 -14 -35 -14 -26 2 6 8 3 8 -9 -1 -9 -8 -15 -19 -14
-25 1 -7 -6 -12 -15 -12 -19 0 -33 -12 -33 -28 0 -7 -8 -11 -18 -11 -9 1 -14
-2 -11 -7 3 -6 371 -9 895 -8 794 1 890 2 885 16 -4 11 -2 13 9 9 8 -3 15 -1
15 5 0 6 5 7 12 3 7 -5 9 -2 5 8 -8 23 12 38 37 28 20 -7 19 -1 -17 73 -22 45
-59 111 -84 146 -24 35 -42 65 -39 68 2 3 -8 26 -22 52 -15 25 -40 72 -57 104
-16 31 -34 57 -39 57 -5 0 -2 -7 5 -17 13 -15 12 -15 -7 -3 -19 12 -20 15 -8
28 10 10 12 18 4 26 -5 7 -6 17 -2 22 4 4 0 3 -8 -3 -13 -10 -15 -8 -15 13 1
13 5 27 10 31 4 5 5 2 1 -5 -4 -6 -3 -12 2 -12 5 0 8 20 8 44 -1 24 -3 43 -6
41 -3 -2 -7 6 -7 18 -2 17 0 19 7 7 5 -8 10 -12 11 -7 1 4 2 11 3 15 3 21 37
43 56 37 11 -4 21 -2 21 4 1 6 2 17 3 24 0 6 6 12 13 12 7 0 18 6 25 14 10 10
10 12 1 7 -7 -4 -13 -3 -13 2 0 6 7 13 16 16 9 4 12 11 7 18 -14 23 -12 37 5
31 11 -5 13 -3 7 7 -6 10 -4 12 10 6 16 -6 16 -4 4 11 -12 15 -12 16 5 9 20
-7 20 -6 1 14 -18 20 -18 21 0 14 15 -6 17 -4 11 11 -4 11 -4 16 0 12 12 -12
32 13 27 33 -3 12 1 22 11 26 9 3 13 10 10 15 -3 5 -11 6 -17 2 -7 -4 -6 0 2
10 15 18 26 23 16 7 -3 -5 -1 -10 6 -10 7 0 10 13 7 35 -3 28 -1 34 10 30 12
-4 13 -3 2 10 -9 11 -9 15 -1 15 8 0 7 6 -3 16 -20 19 -21 31 -2 15 12 -10 13
-8 9 8 -3 12 -8 21 -12 21 -9 0 -1 79 9 85 8 5 -24 75 -60 131 -11 18 -8 31
23 100 19 43 39 90 43 104 12 37 6 76 -30 189 -14 45 -26 91 -26 102 0 16 -5
19 -22 14 -19 -5 -20 -4 -7 4 14 9 16 25 10 64 0 5 -5 5 -11 2 -5 -3 -10 -1
-10 4 0 6 4 11 9 11 5 0 11 7 15 15 3 8 0 14 -7 12 -7 -1 -11 6 -11 16 2 15
-1 16 -14 5 -13 -11 -14 -10 -4 9 17 30 15 38 -5 22 -15 -13 -15 -12 -5 8 11
20 9 25 -25 47 -20 14 -41 22 -46 19 -6 -4 -7 -1 -3 6 5 8 0 14 -13 18 -11 3
-19 9 -16 13 3 5 -5 12 -17 16 -13 4 -28 14 -35 23 -6 9 -15 16 -20 16 -4 1
-19 7 -32 14 -14 8 -21 9 -17 2 4 -6 2 -11 -3 -11 -6 0 -11 4 -11 9 0 5 -9 13
-21 16 -11 4 -40 20 -64 36 -24 16 -46 29 -49 29 -3 0 -42 18 -86 39 -44 22
-80 37 -80 34 0 -3 -7 0 -15 7 -8 6 -30 12 -49 13 -19 0 -33 5 -30 9 3 4 1 8
-5 8 -5 0 -12 -4 -15 -9 -3 -5 -15 -7 -27 -4 -14 4 -17 8 -8 13 7 5 2 7 -14 7
-14 -1 -23 -5 -20 -9 9 -16 -10 -7 -23 10 -13 16 -14 16 -8 -3 6 -16 4 -18 -6
-8 -11 10 -16 9 -27 -5 -8 -9 -12 -11 -8 -4 4 7 0 12 -10 12 -10 0 -13 -5 -9
-12 4 -7 3 -8 -5 -4 -9 6 -9 11 0 22 15 18 5 18 -13 1z m637 -217 c4 -6 10 -8
15 -5 5 3 12 0 16 -6 4 -8 3 -9 -4 -5 -7 4 -12 2 -12 -3 0 -6 -5 -11 -11 -11
-5 0 -8 4 -4 9 3 6 -3 14 -12 20 -10 6 -13 11 -6 11 6 0 15 -5 18 -10z m-27
-25 c-3 -3 -9 2 -12 12 -6 14 -5 15 5 6 7 -7 10 -15 7 -18z m62 -15 c0 -5 -5
-10 -11 -10 -5 0 -7 5 -4 10 3 6 8 10 11 10 2 0 4 -4 4 -10z m184 -178 c3 -5
-1 -9 -9 -9 -8 0 -15 4 -15 9 0 4 4 8 9 8 6 0 12 -4 15 -8z m11 -62 c3 -5 1
-10 -4 -10 -6 0 -11 5 -11 10 0 6 2 10 4 10 3 0 8 -4 11 -10z m-1364 -1468
c-7 -2 -18 1 -23 6 -8 8 -4 9 13 5 13 -4 18 -8 10 -11z m59 -154 c0 -6 -6 -5
-15 2 -8 7 -15 14 -15 16 0 2 7 1 15 -2 8 -4 15 -11 15 -16z m-410 -358 c0 -5
-5 -10 -11 -10 -5 0 -7 5 -4 10 3 6 8 10 11 10 2 0 4 -4 4 -10z"/>
<path d="M575 440 c3 -5 8 -10 11 -10 2 0 4 5 4 10 0 6 -5 10 -11 10 -5 0 -7
-4 -4 -10z"/>
</g>
</svg>
